<?xml version="1.0" encoding="iso-8859-1"?>
<!-- Uploaded to: SVG Repo, www.svgrepo.com, Generator: SVG Repo Mixer Tools -->
<svg fill="#000000" height="800px" width="800px" version="1.1" id="Layer_1" xmlns="http://www.w3.org/2000/svg" xmlns:xlink="http://www.w3.org/1999/xlink" 
	 viewBox="0 0 512 512" xml:space="preserve">
<g>
	<g>
		<g>
			<path d="M447.147,134.613c-0.533-1.28-1.28-2.453-2.347-3.413l-128-128c-1.92-2.027-4.693-3.2-7.467-3.2H74.667
				C68.8,0,64,4.8,64,10.667v490.667C64,507.2,68.8,512,74.667,512h362.667C443.2,512,448,507.2,448,501.333V138.667
				C448,137.28,447.68,135.893,447.147,134.613z M320,36.373L411.627,128H320V36.373z M426.667,490.667H85.333V21.333h213.333
				v117.333c0,5.867,4.8,10.667,10.667,10.667h117.333V490.667z"/>
			<path d="M175.467,172.587c-3.093,2.027-4.8,5.44-4.8,8.96V394.24c0,3.947,2.027,7.68,5.44,9.6c3.52,1.92,7.68,1.707,10.773-0.32
				l170.453-106.453c5.013-3.093,6.507-9.707,3.413-14.613c-0.853-1.493-2.027-2.667-3.413-3.52L187.2,172.587
				C183.573,170.347,178.987,170.24,175.467,172.587z M192,200.533L331.84,288L192,375.467V200.533z"/>
		</g>
	</g>
</g>
</svg>